<?xml version="1.0" encoding="UTF-8"?>
<!-- Created with Inkscape (http://www.inkscape.org/) -->
<svg width="330" height="460" version="1.1" viewBox="0 0 330 460" xml:space="preserve" xmlns="http://www.w3.org/2000/svg"><defs><linearGradient id="linearGradient378" x1="694.67" x2="694.67" y1="-787.11" y2="-466.48" gradientTransform="matrix(1.0791 0 0 1.0791 -472.65 3449.4)" gradientUnits="userSpaceOnUse"><stop stop-color="#eead5a" offset="0"/><stop stop-color="#e79945" offset=".026988"/><stop stop-color="#ba7435" offset=".75"/><stop stop-color="#bc7636" offset=".875"/><stop stop-color="#dc9751" offset=".88782"/><stop stop-color="#c37d3b" offset=".97358"/><stop stop-color="#be7737" offset="1"/></linearGradient><linearGradient id="linearGradient379" x1="694" x2="696" y1="-775" y2="-477" gradientTransform="matrix(1.0791 0 0 1.0791 -472.65 3449.4)" gradientUnits="userSpaceOnUse"><stop stop-color="#ecac59" offset="0"/><stop stop-color="#b57e40" offset="1"/></linearGradient><linearGradient id="linearGradient380" x1="-320" x2="-320" y2="128" gradientTransform="matrix(3.6524 0 0 3.6524 1419.3 2539.9)" gradientUnits="userSpaceOnUse"><stop stop-color="#004273" offset="0"/><stop stop-color="#0074c4" offset=".071429"/><stop stop-color="#003d6b" offset=".19048"/><stop stop-color="#003863" offset=".78571"/><stop stop-color="#007bcf" offset=".86508"/><stop stop-color="#003660" offset="1"/></linearGradient><radialGradient id="radialGradient380" cx="-310" cy="50" r="41" gradientTransform="matrix(3.6524 0 0 3.6524 1397.4 2539.9)" gradientUnits="userSpaceOnUse"><stop stop-color="#fff" offset="0"/><stop stop-color="#f7c492" offset=".56608"/><stop stop-color="#e08e43" offset="1"/></radialGradient><linearGradient id="linearGradient396" x1="224.97" x2="224.97" y1="2627.5" y2="2919.7" gradientUnits="userSpaceOnUse"><stop stop-color="#f9cfab" offset="0"/><stop stop-color="#c97e41" offset="1"/></linearGradient><linearGradient id="linearGradient398" x1="226" x2="226" y1="2918.5" y2="2629.5" gradientUnits="userSpaceOnUse"><stop stop-color="#f9ba7b" offset="0"/><stop stop-color="#da8d3f" offset="1"/></linearGradient></defs><g transform="translate(-60,-2544)"><rect x="62" y="2756" width="29" height="37" ry="7.3049" fill="#f2a553" stroke-width="1.0791"/><path d="m154 2601 70-12 68 12 11 173-11 171-68 12-70-12-11-172.82z" fill="url(#linearGradient378)" stroke-width="1.0791"/><path d="m154 2601-11 171.18 11 172.82 70 12 68-12 11-171-11-173-68-12zm2.814 3 67.186-12 65.004 12 10.757 170-10.757 168-65.004 12-66.996-12-10.749-169.82 10.749-168.18z" fill="url(#linearGradient379)" stroke-width="1.0791"/><rect x="171" y="2544" width="106" height="460" ry="10" fill="url(#linearGradient380)" stroke-width="1.0791"/><path d="m362 2815c-4.062-2.17-8.377-.57-10.082 3.14l-9.23 20.09c-1.705 3.72-.134 8.1 3.521 9.83l13.197 6.24c3.656 1.73 7.97.14 9.676-3.57l9.23-20.1c1.704-3.71.134-8.09-3.521-9.82z" fill="#f2a553" stroke-width="1.0791"/><rect x="359" y="2756" width="29" height="37" ry="7.3049" fill="#f2a553" stroke-width="1.0791"/><path d="m346 2699c-3.449 2.65-5.02 7.02-3.315 10.71l9.231 20.03c1.705 3.7 6.02 5.29 9.676 3.57l13.198-6.23c3.656-1.73 5.226-6.09 3.522-9.79l-9.231-20.03c-1.706-3.7-6.021-5.29-9.676-3.56z" fill="#f2a553" stroke-width="1.0791"/><path d="m184 2625-13-25v26z" opacity=".3" stroke-width="1.0791"/><path d="m264 2625 13-25v26z" opacity=".3" stroke-width="1.0791"/><path d="m264 2921 13 25v-26z" opacity=".3" stroke-width="1.0791"/><path d="m184 2921-13 25v-26z" opacity=".3" stroke-width="1.0791"/><circle cx="224.97" cy="2773.6" r="156" fill="url(#linearGradient396)" stroke-width="1.0791"/><circle cx="224.97" cy="2773.6" r="153" fill="url(#radialGradient380)" stroke-width="1.0791"/><circle cx="226" cy="2774" r="144" fill="#f4b473" stroke="url(#linearGradient398)" stroke-dashoffset=".2" stroke-linecap="round" stroke-linejoin="round" stroke-miterlimit="3.2"/><circle cx="226" cy="2774" r="132" stroke-dashoffset=".2" stroke-linecap="round" stroke-linejoin="round" stroke-miterlimit="3.2" stroke-width="2"/></g></svg>
