<?xml version="1.0" encoding="UTF-8"?>
<!-- Created with Inkscape (http://www.inkscape.org/) -->
<svg width="330" height="460" version="1.1" viewBox="0 0 330 460" xml:space="preserve" xmlns="http://www.w3.org/2000/svg"><defs><linearGradient id="linearGradient373" x1="2014" x2="2014" y1="-768" y2="-484" gradientTransform="matrix(1.0791 0 0 1.0791 -1408.3 3449.4)" gradientUnits="userSpaceOnUse"><stop stop-color="#3e3e3e" offset="0"/><stop stop-color="#202020" offset=".044164"/><stop stop-color="#1f1f1f" offset=".75"/><stop stop-color="#202020" offset=".79807"/><stop stop-color="#494949" offset=".88782"/><stop stop-color="#1f1f1f" offset=".95973"/><stop stop-color="#202020" offset="1"/></linearGradient><linearGradient id="linearGradient374" x1="2014" x2="2014" y1="-768" y2="-484" gradientTransform="matrix(1.0791 0 0 1.0791 -1408.3 3449.4)" gradientUnits="userSpaceOnUse"><stop stop-color="#575757" offset="0"/><stop stop-color="#151515" offset="1"/></linearGradient><linearGradient id="linearGradient375" x1="-320" x2="-320" y2="128" gradientTransform="matrix(3.6524 0 0 3.6524 1864.3 2539.9)" gradientUnits="userSpaceOnUse"><stop offset="0"/><stop stop-color="#3b3b3b" offset=".071429"/><stop offset=".19048"/><stop offset=".78571"/><stop stop-color="#3b3b3b" offset=".86508"/><stop offset="1"/></linearGradient><linearGradient id="linearGradient417" x1="226" x2="226" y1="2918.5" y2="2629.5" gradientTransform="translate(466)" gradientUnits="userSpaceOnUse"><stop stop-color="#676664" offset="0"/><stop stop-color="#1f1d21" offset="1"/></linearGradient><radialGradient id="radialGradient417" cx="-310" cy="50" r="41" gradientTransform="matrix(3.6524 0 0 3.6524 1863.4 2539.9)" gradientUnits="userSpaceOnUse"><stop stop-color="#fff" offset="0"/><stop stop-color="#5a5a5a" offset=".56608"/><stop stop-color="#2a2a2a" offset="1"/></radialGradient><linearGradient id="linearGradient418" x1="224.97" x2="224.97" y1="2627.5" y2="2919.7" gradientTransform="translate(466)" gradientUnits="userSpaceOnUse"><stop stop-color="#676664" offset="0"/><stop stop-color="#1e1e1e" offset="1"/></linearGradient></defs><g transform="translate(-526,-2544)"><path d="m597 2609 93-12 93.05 12 10.95 165-10.95 165-93.05 12-93.05-12-10.949-166.82z" fill="url(#linearGradient373)" stroke-width="1.0791"/><path d="m597 2609-11 163.18 10.949 166.82 93.051 12 93.049-12 10.95-165-10.95-165-93.049-12zm2.787 3 90.213-12 90.037 12 10.718 162-10.718 162-90.037 12-90.043-12-10.72-163.82 10.546-159.95z" fill="url(#linearGradient374)" stroke-width="1.0791"/><rect x="615" y="2544" width="150" height="460" ry="10" fill="url(#linearGradient375)" stroke-width="1.0791"/><path d="m752 2633 13-25v26z" opacity=".3" stroke-width="1.0791"/><path d="m628 2633-13-25v26z" opacity=".3" stroke-width="1.0791"/><path d="m628 2914-13 25v-26z" opacity=".3" stroke-width="1.0791"/><path d="m752 2914 13 25v-26z" opacity=".3" stroke-width="1.0791"/><rect x="528" y="2756" width="29" height="37" ry="7.3049" fill="#202020" stroke-width="1.0791"/><path d="m828 2815c-4.062-2.17-8.377-.57-10.082 3.14l-9.23 20.09c-1.705 3.72-.134 8.1 3.521 9.83l13.197 6.24c3.656 1.73 7.97.14 9.676-3.57l9.23-20.1c1.704-3.71.134-8.09-3.521-9.82z" fill="#202020" stroke-width="1.0791"/><rect x="825" y="2756" width="29" height="37" ry="7.3049" fill="#202020" stroke-width="1.0791"/><path d="m812 2699c-3.449 2.65-5.02 7.02-3.315 10.71l9.231 20.03c1.705 3.7 6.02 5.29 9.676 3.57l13.198-6.23c3.656-1.73 5.226-6.09 3.522-9.79l-9.231-20.03c-1.706-3.7-6.021-5.29-9.676-3.56z" fill="#202020" stroke-width="1.0791"/><circle cx="690.97" cy="2773.6" r="156" fill="url(#linearGradient418)" stroke-width="1.0791"/><circle cx="690.97" cy="2773.6" r="153" fill="url(#radialGradient417)" stroke-width="1.0791"/><circle cx="692" cy="2774" r="144" fill="#434343" stroke="url(#linearGradient417)" stroke-dashoffset=".2" stroke-linecap="round" stroke-linejoin="round" stroke-miterlimit="3.2"/><circle cx="692" cy="2774" r="132" stroke-dashoffset=".2" stroke-linecap="round" stroke-linejoin="round" stroke-miterlimit="3.2" stroke-width="2"/></g></svg>
