<?xml version="1.0" encoding="UTF-8"?>
<!-- Created with Inkscape (http://www.inkscape.org/) -->
<svg width="291" height="426" version="1.1" viewBox="0 0 291 426" xml:space="preserve" xmlns="http://www.w3.org/2000/svg" xmlns:xlink="http://www.w3.org/1999/xlink"><defs><radialGradient id="radialGradient70-9-6-4-7" cx="-310" cy="50" r="41" gradientTransform="matrix(3.3846,0,0,3.3846,1231.6,-3.8)" gradientUnits="userSpaceOnUse"><stop stop-color="#fff" offset="0"/><stop stop-color="#5b5a58" offset=".56608"/><stop stop-color="#2b292e" offset="1"/></radialGradient><linearGradient id="linearGradient83" x1="-320" x2="-320" y2="128" gradientTransform="matrix(3.3846,0,0,3.3846,1231.6,-3.8)" gradientUnits="userSpaceOnUse"><stop offset="0"/><stop stop-color="#3b3b3b" offset=".071429"/><stop offset=".19048"/><stop offset=".78571"/><stop stop-color="#3b3b3b" offset=".86508"/><stop offset="1"/></linearGradient><linearGradient id="linearGradient199" x1="213.23" x2="213.23" y1="-761.6" y2="-490.83" gradientTransform="translate(-68.1,839)" gradientUnits="userSpaceOnUse"><stop stop-color="#676664" offset="0"/><stop stop-color="#1f1d21" offset="1"/></linearGradient><linearGradient id="linearGradient229" x1="647" x2="647" y1="-752.08" y2="-499.99" gradientTransform="translate(-502 839)" gradientUnits="userSpaceOnUse"><stop stop-color="#060606" offset="0"/><stop stop-color="#3a3a3a" offset="1"/></linearGradient><linearGradient id="linearGradient232" x1="2014" x2="2014" y1="-768" y2="-484" gradientTransform="translate(-1801,839)" gradientUnits="userSpaceOnUse"><stop stop-color="#3f3d45" offset="0"/><stop stop-color="#211f23" offset=".044164"/><stop stop-color="#211f23" offset=".75"/><stop stop-color="#211f23" offset=".79807"/><stop stop-color="#4d4650" offset=".88782"/><stop stop-color="#211f23" offset=".95973"/><stop stop-color="#211f23" offset="1"/></linearGradient><linearGradient id="linearGradient234" x1="2014" x2="2014" y1="-768" y2="-484" gradientTransform="translate(-1801,839)" gradientUnits="userSpaceOnUse"><stop stop-color="#59575a" offset="0"/><stop stop-color="#17141a" offset="1"/></linearGradient></defs><rect x="4" y="196" width="27" height="34" ry="6.7692" fill="#211f23"/><path d="m59 71 84.5-12 84.34 12 10.16 142-10.16 142-84.34 12-84.34-12-10.16-143.69z" fill="url(#linearGradient232)"/><path d="m59 71-10 140.31 10.16 143.69 84.34 12 84.34-12 10.16-142-10.16-142-84.34-12zm2.793 3 81.707-12 81.543 12 9.9453 139-9.9453 139-81.543 12-81.547-12-9.9473-140.69 9.7852-137.31z" fill="url(#linearGradient234)"/><rect x="74" width="139" height="426" ry="10" fill="url(#linearGradient83)"/><path d="m262 251c-3.35-1.953-7.31-.481-8.88 2.948l-8.48 18.563c-1.57 3.428-.13 7.475 3.23 9.073l12.13 5.771c3.36 1.599 7.32.126 8.89-3.302l8.48-18.563c1.57-3.428.13-7.475-3.23-9.073z" fill="#211f23"/><rect x="260" y="196" width="27" height="34" ry="6.7692" fill="#211f23"/><path d="m248 144c-3.49 2.015-4.93 6.061-3.36 9.489l8.48 18.564c1.57 3.428 5.53 4.9 8.89 3.302l12.13-5.771c3.36-1.598 4.8-5.645 3.23-9.073l-8.48-18.563c-1.57-3.428-5.53-4.901-8.89-3.303z" fill="#211f23"/><path d="m201 94 12-23v24z" opacity=".3"/><circle cx="145.2" cy="212.8" r="135.38" fill="url(#radialGradient70-9-6-4-7)"/><path d="m86 94-12-23v24z" opacity=".3"/><path d="m141 91c-32.02 1.01-63.31 15.205-85.07 38.63-18.41 19.592-30.01 45.418-32.4 72.2-.19 1.991-.4 5.113-.47 7.555-1.11 33.399 12.28 66.974 36.18 90.35 24.42 24.39 59.58 37.477 94.01 34.957 19.85-1.334 39.38-7.583 56.24-18.162 1.74-1.073 4.34-2.794 6.35-4.236 21.82-15.446 38.2-38.341 45.92-63.931.37-1.221 1.08-3.77 1.53-5.51 8.35-32.497 2.42-68.314-16.02-96.354-18.59-28.942-50.01-49.166-84.04-54.128-7.31-1.208-14.77-1.62-22.23-1.371z" fill="#141414"/><path d="m86 332-12 23v-24z" opacity=".3"/><path d="m201 332 12 23v-24z" opacity=".3"/><path d="m145.2 77.4a135.38 135.38 0 00-135.38 135.38 135.38 135.38 0 00135.38 135.38 135.38 135.38 0 00135.38-135.38 135.38 135.38 0 00-135.38-135.38zm0 2.5566c17.387 0 34.766 3.4576 50.83 10.111 16.064 6.6537 30.799 16.498 43.094 28.793s22.139 27.03 28.793 43.094c6.6537 16.064 10.111 33.443 10.111 50.83s-3.4576 34.767-10.111 50.83c-6.6538 16.064-16.498 30.799-28.793 43.094-12.294 12.295-27.03 22.139-43.094 28.793-16.064 6.6537-33.443 10.111-50.83 10.111s-34.767-3.4576-50.83-10.111c-16.064-6.6537-30.799-16.498-43.094-28.793-12.294-12.294-22.139-27.03-28.793-43.094-6.6538-16.064-10.111-33.443-10.111-50.83s3.4576-34.767 10.111-50.83c6.6537-16.064 16.498-30.799 28.793-43.094s27.03-22.139 43.094-28.793 33.443-10.111 50.83-10.111z" fill="url(#linearGradient199)"/><path d="m140.9 87c-33.114 1.0468-65.355 15.671-87.869 39.902-19.034 20.257-31.004 46.878-33.478 74.572-1e-4 0 1e-4 0 0 0-.2058 2.1235-.4076 5.2506-.4864 7.8047-1e-4 0 1e-4.01 0 .01-1.1429 34.554 12.645 69.145 37.375 93.342 25.278 25.238 61.501 38.719 97.131 36.113h.01c20.51-1.382 40.655-7.8275 58.094-18.768 1.837-1.135 4.4305-2.8483 6.5332-4.3594h.01c22.575-15.979 39.465-39.585 47.443-66.041.4175-1.3632 1.111-3.8696 1.5781-5.6758a4.0373 4.0373 0 000-.01c8.6403-33.627 2.5372-70.531-16.539-99.555-19.243-29.945-51.601-50.773-86.816-55.918-7.5856-1.2503-15.296-1.6759-22.975-1.4199zm.1348 4.0352c7.457-.249 14.92.1631 22.23 1.3711 34.036 4.962 65.454 25.185 84.047 54.127 18.439 28.04 24.366 63.858 16.016 96.355-.45 1.74-1.1573 4.2888-1.5313 5.5098-7.713 25.59-24.097 48.486-45.922 63.932-2.005 1.442-4.6077 3.1614-6.3457 4.2344-16.863 10.579-36.391 16.828-56.244 18.162-34.425 2.52-69.585-10.567-94.006-34.957-23.901-23.376-37.288-56.95-36.18-90.35.075-2.442.2758-5.5637.4688-7.5547 2.386-26.782 13.994-52.607 32.404-72.199 21.757-23.425 53.046-37.621 85.062-38.631z" fill="url(#linearGradient229)"/></svg>
