<?xml version="1.0" encoding="UTF-8"?>
<!-- Created with Inkscape (http://www.inkscape.org/) -->
<svg width="246" height="403" version="1.1" viewBox="0 0 246 403" xml:space="preserve" xmlns="http://www.w3.org/2000/svg"><defs><linearGradient id="linearGradient151" x1="-810" x2="-810" y1="10" y2="120" gradientTransform="matrix(3.2,0,0,3.2,2790,-3.6)" gradientUnits="userSpaceOnUse"><stop stop-color="#5e5c64" offset="0"/><stop stop-color="#7c7b78" offset=".3483"/><stop stop-color="#8e8e8f" offset=".39091"/><stop stop-color="#86858a" offset=".57557"/><stop stop-color="#65636a" offset=".6608"/><stop stop-color="#5e5c64" offset="1"/></linearGradient><linearGradient id="linearGradient152" x1="-830" x2="-830" y2="125" gradientTransform="matrix(3.2,0,0,3.2,2790,-3.6)" gradientUnits="userSpaceOnUse"><stop stop-color="#5d5d5d" offset="0"/><stop stop-color="#c7c7c7" offset=".071429"/><stop stop-color="#747474" offset=".19048"/><stop stop-color="#757575" offset=".78571"/><stop stop-color="#c7c7c7" offset=".86508"/><stop stop-color="#777" offset="1"/></linearGradient></defs><rect x="4" y="121" width="22" height="77" ry="6.4" fill="#262626"/><rect x="220" y="83" width="22" height="77" ry="6.4" fill="#262626"/><rect x="220" y="182" width="22" height="45" ry="6.4" fill="#262626"/><rect x="220" y="249" width="22" height="77" ry="6.4" fill="#262626"/><rect x="9" y="35" width="227" height="339" fill="url(#linearGradient151)"/><path d="m67 0c-8.87 0-16 7.133-16 15.992v45.008h144v-45.008c0-8.859-7.14-15.992-16-15.992zm-16 348.63v38.381c0 8.8595 7.13 15.992 16 15.992h112c8.86.00014 16-7.1323 16-15.992v-38.381z" fill="url(#linearGradient152)"/><path d="m51 35v26h12zm144 0-12 26h12zm-144 313.63v26l12-26zm132 0 12 26v-26z" opacity=".3"/><rect x="49" y="112" width="148" height="172" stroke-dashoffset=".2" stroke-linecap="round" stroke-linejoin="round" stroke-miterlimit="3.2" stroke-width="2"/></svg>
