<?xml version="1.0" encoding="UTF-8"?>
<!-- Created with Inkscape (http://www.inkscape.org/) -->
<svg width="264.2" height="394" version="1.1" viewBox="0 0 264.2 394" xml:space="preserve" xmlns="http://www.w3.org/2000/svg" xmlns:xlink="http://www.w3.org/1999/xlink"><defs><linearGradient id="linearGradient329"><stop stop-color="#3d3b3e" offset="0"/><stop stop-color="#4f4d4d" stop-opacity="0" offset="1"/></linearGradient><linearGradient id="linearGradient327"><stop stop-color="#484647" offset="0"/><stop stop-color="#595856" offset="1"/></linearGradient><radialGradient id="radialGradient105-9-3-9" cx="-695" cy="-76.133" r="39" gradientTransform="matrix(3.2 0 0 3.6922 2387.2 433.51)" gradientUnits="userSpaceOnUse"><stop stop-color="#fff" offset="0"/><stop stop-color="#5b5a58" offset=".56608"/><stop stop-color="#2b292e" offset="1"/></radialGradient><linearGradient id="linearGradient288" x1="-681.25" x2="-681.25" y1="-20" y2="-107.5" gradientTransform="matrix(3.2 0 0 3.2 2387.2 402)" gradientUnits="userSpaceOnUse"><stop stop-color="#201e23" offset="0"/><stop stop-color="#525152" offset="1"/></linearGradient><linearGradient id="linearGradient306" x1="-704.5" x2="-704.5" y1="-106.25" y2="-21.25" gradientTransform="matrix(3.2 0 0 3.2 2387.6 402)" gradientUnits="userSpaceOnUse"><stop stop-color="#0f1212" offset="0"/><stop stop-color="#5b6063" offset="1"/></linearGradient><linearGradient id="linearGradient323" x1="3405" x2="3549" y1="-376" y2="-376" gradientTransform="translate(-3347.8 402)" gradientUnits="userSpaceOnUse" xlink:href="#linearGradient327"/><linearGradient id="linearGradient324" x1="3440" x2="3440" y1="-388" y2="-402" gradientTransform="translate(-3347.8 402)" gradientUnits="userSpaceOnUse" xlink:href="#linearGradient329"/><linearGradient id="linearGradient330" x1="3405" x2="3549" y1="-376" y2="-376" gradientTransform="matrix(1 0 0 -1 -3347.8 -8)" gradientUnits="userSpaceOnUse" xlink:href="#linearGradient327"/><linearGradient id="linearGradient331" x1="3440" x2="3440" y1="-388" y2="-402" gradientTransform="matrix(1 0 0 -1 -3347.8 -8)" gradientUnits="userSpaceOnUse" xlink:href="#linearGradient329"/></defs><path d="m188.2 334v22h19.33l9.6699-22h-29z" fill="#444344"/><path d="m114.2 334v22h29v-22z" fill="#444344"/><path d="m41.199 334 9.6602 22h19.34v-22h-29z" fill="#444344"/><path d="m239.2 229v61h15.83l3.1699-61h-19z" fill="#444344"/><path d="m242.2 172v54h16.359l1.6406-25.41-1.6406-28.59z" fill="#444344"/><path d="m239.2 108v61h19l-3.1699-61h-15.83z" fill="#444344"/><path d="m7.1992 101.2-3.1992 70.398h19.199v-70.398h-16z" fill="#444344"/><path d="m188.2 38v22h29l-9.6699-22h-19.33z" fill="#444344"/><path d="m114.2 38v22h29v-22z" fill="#444344"/><path d="m50.859 38-9.6602 22h29v-22h-19.34z" fill="#444344"/><path d="m35.159 55.98h192c8.8365 0 16.886 7.5091 17.873 16.291 9.5293 84.784 10.959 165.07.26208 249.85-1.106 8.767-9.2986 15.857-18.135 15.857h-192c-8.8365 0-16.886-7.1088-17.873-15.89-9.5293-84.784-10.959-165.07-.26208-249.85 1.106-8.767 9.2986-16.257 18.135-16.257z" fill="url(#radialGradient105-9-3-9)" stroke-width="3.2"/><path d="m35.159 72.4c-.27904 0-2.2508 1.7636-2.2625 1.8563-10.518 83.366-9.1363 162.22.28736 246.07.016.13546 1.7165 1.675 1.975 1.675h192c.27904 0 2.2508-1.7636 2.2625-1.8563 10.518-83.366 9.1363-162.22-.28736-246.07-.0152-.13545-1.7165-1.675-1.975-1.675z" stroke-width="3.2"/><path d="m35.159 55.98c-8.8365 0-17.029 7.4909-18.135 16.258-10.697 84.787-9.2675 165.07.26173 249.85.98694 8.7811 9.0365 15.889 17.873 15.889h192c8.8365 0 17.029-7.0886 18.135-15.855 10.697-84.787 9.2675-165.07-.26173-249.85-.98694-8.7811-9.0365-16.291-17.873-16.291h-192zm0 2.9375h192c7.1718 0 14.148 6.479 14.957 13.682 9.5098 84.611 10.926 164.63.2617 249.16-.90496 7.1731-7.9546 13.287-15.219 13.287h-192c-7.2605 0-14.147-6.0886-14.955-13.281-9.5098-84.611-10.928-164.63-.26365-249.16.90637-7.1843 8.0432-13.688 15.219-13.688z" fill="url(#linearGradient288)" stroke-width="3.2"/><path d="m35.559 62c-5.4467 0-11.489 5.469-12.188 11.006-10.63 84.253-9.2143 164 .2754 248.44.6226 5.5394 6.292 10.557 11.912 10.557h192c5.6277 0 11.492-5.0912 12.188-10.605 10.63-84.253 9.2143-164-.2754-248.44-.6249-5.5594-6.4731-10.957-11.912-10.957zm0 3h192c3.7401 0 8.4879 4.3465 8.9316 8.2949 9.4699 84.257 10.872 163.74.2754 247.72-.4905 3.8878-5.1838 7.9805-9.207 7.9805h-192c-4.0117 0-8.4913-3.9743-8.9316-7.8926-9.47-84.257-10.87-163.74-.2735-247.73.4948-3.9216 5.4534-8.3808 9.2051-8.3808z" fill="url(#linearGradient306)" opacity=".5"/><rect x="61.159" y="2" width="136" height="1" fill="#545352"/><path d="m57.159 12v26h13v18h44v-18h29v18h45v-18h13v-26h-36v12h-22v-12h-29v12h-22v-12z" fill="#2b292e"/><path d="m61.159 3v17h136v-17z" fill="#2b292e"/><path d="m92.159 0v12h-35v20h13v18h44v-18h29v18h45v-18h13v-20h-36v-12h-22v12h-29v-12z" fill="url(#linearGradient323)"/><rect x="92.159" y="14" width="22" height="10" fill="#2b292e"/><rect x="143.16" y="14" width="22" height="10" fill="#2b292e"/><path d="m92.159 0v14h22v-14zm51 0v14h22v-14z" fill="url(#linearGradient324)"/><rect transform="scale(1,-1)" x="61.159" y="-392" width="136" height="1" fill="#545352"/><path d="m57.159 382v-26h13v-18h44v18h29v-18h45v18h13v26h-36v-12h-22v12h-29v-12h-22v12z" fill="#2b292e"/><path d="m61.159 391v-17h136v17z" fill="#2b292e"/><path d="m92.159 394v-12h-35v-20h13v-18h44v18h29v-18h45v18h13v20h-36v12h-22v-12h-29v12z" fill="url(#linearGradient330)"/><rect transform="scale(1,-1)" x="92.159" y="-380" width="22" height="10" fill="#2b292e"/><rect transform="scale(1,-1)" x="143.16" y="-380" width="22" height="10" fill="#2b292e"/><path d="m92.159 394v-14h22v14zm51 0v-14h22v14z" fill="url(#linearGradient331)"/><path d="m70.159 38v18h10zm44 0-10 18h10zm29 0v18h10zm45 0-10 18h10zm-118 300v18l10-18zm34 0 10 18v-18zm39 0v18l10-18zm35 0 10 18v-18z" opacity=".3"/></svg>
