<?xml version="1.0" encoding="UTF-8"?>
<!-- Created with Inkscape (http://www.inkscape.org/) -->
<svg width="291" height="426" version="1.1" viewBox="0 0 291 426" xml:space="preserve" xmlns="http://www.w3.org/2000/svg" xmlns:xlink="http://www.w3.org/1999/xlink"><defs><radialGradient id="radialGradient626-7" cx="-310" cy="50" r="41" gradientTransform="matrix(3.3846,0,0,3.3846,1231.9,-3.8)" gradientUnits="userSpaceOnUse"><stop stop-color="#fff" offset="0"/><stop stop-color="#5b5a58" offset=".56608"/><stop stop-color="#2b292e" offset="1"/></radialGradient><linearGradient id="linearGradient62" x1="-320" x2="-320" y2="128" gradientTransform="matrix(3.3846,0,0,3.3846,1252.2,-3.8)" gradientUnits="userSpaceOnUse"><stop stop-color="#9d1900" offset="0"/><stop stop-color="#ff5731" offset=".071429"/><stop stop-color="#9d1900" offset=".19048"/><stop stop-color="#9d1900" offset=".78571"/><stop stop-color="#ff5731" offset=".86508"/><stop stop-color="#9d1900" offset="1"/></linearGradient><linearGradient id="linearGradient196" x1="213.23" x2="213.23" y1="-761.6" y2="-490.83" gradientTransform="translate(-67.77 839)" gradientUnits="userSpaceOnUse"><stop stop-color="#676664" offset="0"/><stop stop-color="#1f1d21" offset="1"/></linearGradient><linearGradient id="linearGradient215" x1="694" x2="694" y1="-775" y2="-477" gradientTransform="translate(-501,839)" gradientUnits="userSpaceOnUse"><stop stop-color="#3f3d45" offset="0"/><stop stop-color="#211f23" offset=".044164"/><stop stop-color="#211f23" offset=".75"/><stop stop-color="#211f23" offset=".875"/><stop stop-color="#4d4650" offset=".88782"/><stop stop-color="#211f23" offset=".95973"/><stop stop-color="#211f23" offset="1"/></linearGradient><linearGradient id="linearGradient222" x1="694" x2="696" y1="-775" y2="-477" gradientTransform="translate(-501,839)" gradientUnits="userSpaceOnUse"><stop stop-color="#59575a" offset="0"/><stop stop-color="#17141a" offset="1"/></linearGradient><linearGradient id="linearGradient224" x1="647" x2="647" y1="-752.08" y2="-499.99" gradientTransform="translate(-501,839)" gradientUnits="userSpaceOnUse"><stop stop-color="#060606" offset="0"/><stop stop-color="#3a3a3a" offset="1"/></linearGradient></defs><rect x="4" y="196" width="27" height="34" ry="6.7692" fill="#211f23"/><path d="m80 64 64-12 63.87 12 10.134 149-10.134 149-63.87 12-63.86-12-10.133-150.69z" fill="url(#linearGradient215)"/><path d="m80 64-10 147.31 10.133 150.69 63.867 12 63.863-12 10.135-149-10.135-149-63.863-12-64.007 12zm2.8027 3 61.197-12 61.063 12 9.9297 146-9.9297 146-61.063 12-61.057-12-9.9297-147.69 9.7949-144.31z" fill="url(#linearGradient222)"/><rect x="95" width="98" height="426" ry="10" fill="url(#linearGradient62)"/><path d="m262 251c-3.354-1.953-7.319-.481-8.886 2.948l-8.482 18.563c-1.566 3.429-.123 7.475 3.236 9.073l12.127 5.771c3.359 1.599 7.324.127 8.891-3.302l8.482-18.563c1.566-3.428.123-7.475-3.236-9.073z" fill="#211f23"/><rect x="260" y="196" width="27" height="34" ry="6.7692" fill="#211f23"/><path d="m248 144c-3.491 2.015-4.934 6.062-3.368 9.489l8.482 18.564c1.567 3.428 5.532 4.9 8.891 3.302l12.127-5.771c3.359-1.598 4.802-5.645 3.236-9.073l-8.482-18.563c-1.567-3.428-5.532-4.901-8.891-3.303z" fill="#211f23"/><path d="m107 87-12-23v24z" opacity=".3"/><path d="m181 87 12-23v24z" opacity=".3"/><path d="m181 339 12 23v-24z" opacity=".3"/><path d="m107 339-12 23v-24z" opacity=".3"/><circle cx="145.46" cy="212.8" r="135.38" fill="url(#radialGradient626-7)"/><path d="m142 91c-32.016 1.01-63.306 15.205-85.063 38.63-18.41 19.592-30.017 45.418-32.403 72.2-.193 1.991-.395 5.113-.47 7.555-1.108 33.4 12.279 66.974 36.18 90.35 24.421 24.39 59.581 37.477 94.006 34.957 19.853-1.334 39.381-7.583 56.244-18.162 1.738-1.073 4.341-2.794 6.346-4.236 21.825-15.446 38.209-38.341 45.922-63.931.374-1.221 1.08-3.77 1.53-5.51 8.35-32.497 2.425-68.314-16.014-96.354-18.593-28.942-50.012-49.166-84.048-54.128-7.311-1.208-14.773-1.62-22.23-1.371z" fill="#141414"/><path d="m145.46 77.4a135.38 135.38 0 00-135.38 135.38 135.38 135.38 0 00135.38 135.38 135.38 135.38 0 00135.38-135.38 135.38 135.38 0 00-135.38-135.38zm0 2.5566c17.387 0 34.767 3.4576 50.83 10.111 16.064 6.6537 30.799 16.498 43.094 28.793 12.294 12.295 22.139 27.03 28.793 43.094 6.6537 16.064 10.111 33.443 10.111 50.83 3e-5 17.387-3.4576 34.767-10.111 50.83-6.6537 16.064-16.498 30.799-28.793 43.094s-27.03 22.139-43.094 28.793c-16.064 6.6537-33.443 10.111-50.83 10.111s-34.767-3.4576-50.83-10.111c-16.064-6.6537-30.799-16.498-43.094-28.793-12.295-12.294-22.139-27.03-28.793-43.094-6.6537-16.064-10.111-33.443-10.111-50.83s3.4576-34.767 10.111-50.83c6.6537-16.064 16.498-30.799 28.793-43.094s27.03-22.139 43.094-28.793c16.064-6.6537 33.443-10.111 50.83-10.111z" fill="url(#linearGradient196)"/><path d="m141.87 87c-33.115 1.0468-65.355 15.671-87.869 39.902-19.034 20.257-31.004 46.878-33.479 74.572-1e-4 0 2e-4 0 0 0-.2057 2.1235-.4075 5.2506-.4863 7.8047-1e-4 0 1e-4.01 0 .01-1.1429 34.554 12.645 69.145 37.375 93.342 25.278 25.238 61.501 38.719 97.131 36.113h.01c20.51-1.382 40.655-7.8275 58.094-18.768 1.8371-1.135 4.4306-2.8483 6.5332-4.3594h.006c22.575-15.979 39.465-39.585 47.443-66.041h.002c.41745-1.3632 1.111-3.8696 1.5781-5.6758a4.0373 4.0373 0 00.002-.01c8.6403-33.627 2.5372-70.531-16.539-99.555-19.243-29.945-51.601-50.773-86.816-55.918-7.5856-1.2503-15.296-1.6759-22.975-1.4199h-.008zm.13477 4.0352c7.457-.249 14.919.1631 22.23 1.3711 34.036 4.962 65.454 25.185 84.047 54.127 18.439 28.04 24.366 63.858 16.016 96.355-.45 1.74-1.1572 4.2888-1.5312 5.5098-7.713 25.59-24.097 48.486-45.922 63.932-2.005 1.442-4.6077 3.1614-6.3457 4.2344-16.863 10.579-36.391 16.828-56.244 18.162-34.425 2.52-69.585-10.567-94.006-34.957-23.901-23.376-37.288-56.95-36.18-90.35.075-2.442.2758-5.5637.4688-7.5547 2.386-26.782 13.994-52.607 32.404-72.199 21.757-23.425 53.046-37.621 85.062-38.631z" fill="url(#linearGradient224)"/></svg>
