<?xml version="1.0" encoding="UTF-8"?>
<!-- Created with Inkscape (http://www.inkscape.org/) -->
<svg width="246" height="403" version="1.1" viewBox="0 0 246 403" xml:space="preserve" xmlns="http://www.w3.org/2000/svg" xmlns:xlink="http://www.w3.org/1999/xlink"><defs><linearGradient id="linearGradient148" x1="-810" x2="-810" y1="10" y2="120" gradientTransform="matrix(3.2,0,0,3.2,2790.4,-3.6)" gradientUnits="userSpaceOnUse"><stop stop-color="#e4001d" offset="0"/><stop stop-color="#ff3e2f" offset=".3483"/><stop stop-color="#f3625f" offset=".39091"/><stop stop-color="#fa504c" offset=".57557"/><stop stop-color="#e70e24" offset=".6608"/><stop stop-color="#e4001c" offset="1"/></linearGradient><linearGradient id="linearGradient149" x1="-830" x2="-830" y2="125" gradientTransform="matrix(3.2,0,0,3.2,2790.4,-3.6)" gradientUnits="userSpaceOnUse"><stop offset="0"/><stop stop-color="#3b3b3b" offset=".071429"/><stop offset=".19048"/><stop offset=".78571"/><stop stop-color="#3b3b3b" offset=".86508"/><stop offset="1"/></linearGradient></defs><rect x="4" y="121" width="22" height="77" ry="6.4" fill="#262626"/><rect x="220" y="83" width="22" height="77" ry="6.4" fill="#262626"/><rect x="220" y="182" width="22" height="45" ry="6.4" fill="#262626"/><rect x="220" y="249" width="22" height="77" ry="6.4" fill="#262626"/><rect x="10" y="35" width="227" height="339" fill="url(#linearGradient148)"/><path d="m67 0c-8.864 0-16 7.133-16 15.992v45.008h144v-45.008c0-8.859-7.14-15.992-16-15.992zm-16 348.63v38.381c0 8.8594 7.136 15.992 16 15.992h112c8.86.00024 16-7.1322 16-15.992v-38.381z" fill="url(#linearGradient149)"/><path d="m51 35v26h12zm144 0-12 26h12zm-144 313.63v26l12-26zm132 0 12 26v-26z" opacity=".7"/><rect x="49" y="112" width="148" height="172" stroke-dashoffset=".2" stroke-linecap="round" stroke-linejoin="round" stroke-miterlimit="3.2" stroke-width="2"/></svg>
