<?xml version="1.0" encoding="UTF-8"?>
<!-- Created with Inkscape (http://www.inkscape.org/) -->
<svg width="221.01" height="402.37" version="1.1" viewBox="0 0 221.01 402.37" xml:space="preserve" xmlns="http://www.w3.org/2000/svg" xmlns:xlink="http://www.w3.org/1999/xlink"><defs><linearGradient id="linearGradient100" x1="1374" x2="1374" y1="143" y2="241" gradientTransform="matrix(3.2,0,0,3.2,-2457.6,1253.8)" gradientUnits="userSpaceOnUse"><stop stop-color="#e8e8e8" offset="0"/><stop stop-color="#f8f8f8" offset=".38182"/><stop stop-color="#959ca0" offset="1"/></linearGradient><linearGradient id="linearGradient172" x1="-572" x2="-572" y2="128" gradientTransform="matrix(3.2,0,0,3.2,3686.4,1663.4)" gradientUnits="userSpaceOnUse"><stop stop-color="#52baab" offset="0"/><stop stop-color="#6beedb" offset=".071429"/><stop stop-color="#52baab" offset=".19048"/><stop stop-color="#52baab" offset=".78571"/><stop stop-color="#6beedb" offset=".86508"/><stop stop-color="#52baab" offset="1"/></linearGradient><linearGradient id="linearGradient2" x1="1374" x2="1374" y1="143" y2="241" gradientTransform="matrix(3.2,0,0,3.2,-2457.6,1253.8)" gradientUnits="userSpaceOnUse"><stop stop-color="#fafafa" offset="0"/><stop stop-color="#adadad" offset="1"/></linearGradient></defs><g transform="translate(-1728,-1667)"><rect x="1732" y="1782" width="19" height="51" ry="3.2" fill="#52baab"/><path d="m1929 1782c-1.58 0-3 1.428-3 3.203v44.852c0 1.516 1.42 2.945 3.17 2.945h6.83v7h-6.83c-1.75-.334-3.17 1.095-3.17 2.87v51.259c0 1.442 1.42 2.871 3.17 2.871h6.83v7h-6.83c-1.75-.26-3.17 1.169-3.17 2.944v44.852c0 1.775 1.42 3.204 3.17 3.204h12.66c1.76 0 3.17-1.429 3.17-3.204v-44.852c.16-1.775-1.25-3.204-3-3.204v-6.407c1.59 0 3-1.429 3-3.204v-51.259c.16-1.775-1.25-3.204-3-3.204v-6.407c1.59 0 3-1.429 3-3.204v-44.852c-.01-1.775-1.42-3.203-3.17-3.203z" fill="#52baab"/><path d="m1738 1711v314h16.07c7.22-4e-4 12.93-5.7245 12.93-12.817v-13.183h144v13.183c.15 7.0926 5.86 12.804 12.95 12.817h16.05v-314h-16.03c-7.25 0-12.97 5.716-12.97 12.816v9.184h-144v-9.184c-.14-7.1-5.86-12.816-12.96-12.816z" fill="url(#linearGradient100)"/><rect x="1747" y="1766" width="182" height="208" ry="14.4" fill="#52baab"/><path d="m1783 1667c-8.86.01-16 7.134-16 15.986v50.014h144v-50.021c0-8.852-7.13-15.98-16-15.979zm-16 332v53.65c0 9.2238 7.14 16.32 16 16.35l112 .3726c8.87-.3722 16-7.4982 16-16.35v-54.023z" fill="url(#linearGradient172)"/><path d="m1767 1723v10h6zm144 0-6 10h6zm-144 276v13l9-13zm135 0 9 13v-13z" opacity=".3"/><path d="m1738 1711v314h16.07c7.22-4e-4 12.93-5.7239 12.93-12.816v-13.184h144v13.184c.15 7.0926 5.8592 12.803 12.949 12.816h16.051v-314h-16.029c-7.25 0-12.971 5.7164-12.971 12.816v9.1836h-144v-9.1836c-.14-7.1-5.8609-12.816-12.961-12.816h-16.039zm2 2h14.039c6.0265 0 10.842 4.808 10.961 10.856v9.1445a2.0002 2.0002 0 002 2h144a2.0002 2.0002 0 002-2v-9.1836c0-6.0257 4.772-10.816 10.971-10.816h14.029v310h-14.047c-6.018-.011-10.825-4.8166-10.953-10.859v-13.141a2.0002 2.0002 0 00-2-2h-144a2.0002 2.0002 0 00-2 2v13.184c0 6.0191-4.7666 10.816-10.93 10.816h-14.07v-310z" fill="url(#linearGradient2)"/></g></svg>
