<?xml version="1.0" encoding="UTF-8"?>
<!-- Created with Inkscape (http://www.inkscape.org/) -->
<svg width="264.8" height="394" version="1.1" viewBox="0 0 264.8 394" xml:space="preserve" xmlns="http://www.w3.org/2000/svg" xmlns:xlink="http://www.w3.org/1999/xlink"><defs><linearGradient id="linearGradient315"><stop stop-color="#acb2b5" offset="0"/><stop stop-color="#d8dbdc" offset="1"/></linearGradient><radialGradient id="radialGradient105-9-3-8-0" cx="-695" cy="-76.133" r="39" gradientTransform="matrix(3.2 0 0 3.6922 2387.2 433.51)" gradientUnits="userSpaceOnUse"><stop stop-color="#fff" offset="0"/><stop stop-color="#cdd1d3" offset=".74072"/><stop stop-color="#959ca0" offset="1"/></radialGradient><linearGradient id="linearGradient291" x1="-681.25" x2="-681.25" y1="-20" y2="-107.5" gradientTransform="matrix(3.2 0 0 3.2 2387.2 402)" gradientUnits="userSpaceOnUse"><stop stop-color="#868c8f" offset="0"/><stop stop-color="#dbdddf" offset="1"/></linearGradient><linearGradient id="linearGradient303" x1="-704.5" x2="-704.5" y1="-106.25" y2="-21.25" gradientTransform="matrix(3.2 0 0 3.2 2387.2 402)" gradientUnits="userSpaceOnUse"><stop stop-color="#81888d" offset="0"/><stop stop-color="#acb3b7" offset="1"/></linearGradient><linearGradient id="linearGradient316" x1="3405" x2="3549" y1="-376" y2="-376" gradientTransform="translate(-3347.2 402)" gradientUnits="userSpaceOnUse" xlink:href="#linearGradient315"/><linearGradient id="linearGradient321" x1="3405" x2="3549" y1="-376" y2="-376" gradientTransform="matrix(1 0 0 -1 -3347.2 -8)" gradientUnits="userSpaceOnUse" xlink:href="#linearGradient315"/><linearGradient id="linearGradient322" x1="3440" x2="3440" y1="-388" y2="-402" gradientTransform="matrix(1 0 0 -1 -3347.2 -8)" gradientUnits="userSpaceOnUse"><stop stop-color="#959ca0" stop-opacity=".8" offset="0"/><stop stop-color="#959ca0" stop-opacity="0" offset="1"/></linearGradient></defs><path d="m188.8 334v22h19.33l9.6699-22h-29z" fill="#b8bdbf"/><path d="m114.8 334v22h29v-22z" fill="#b8bdbf"/><path d="m41.799 334 9.6602 22h19.34v-22h-29z" fill="#b8bdbf"/><path d="m238.8 229v61h15.83l3.1699-61h-19z" fill="#b8bdbf"/><path d="m242.8 172v54h16.359l1.6406-25.41-1.6406-28.59z" fill="#b8bdbf"/><path d="m238.8 108v61h19l-3.1699-61h-15.83z" fill="#b8bdbf"/><path d="m7.1992 101.2-3.1992 70.398h19.199v-70.398h-16z" fill="#b8bdbf"/><path d="m188.8 38v22h29l-9.6699-22h-19.33z" fill="#b8bdbf"/><path d="m114.8 38v22h29v-22z" fill="#b8bdbf"/><path d="m51.459 38-9.6602 22h29v-22h-19.34z" fill="#b8bdbf"/><path d="m35.159 55.98h192c8.8365 0 16.886 7.5091 17.873 16.291 9.5293 84.784 10.959 165.07.26208 249.85-1.106 8.767-9.2986 15.857-18.135 15.857h-192c-8.8365 0-16.886-7.1088-17.873-15.89-9.5293-84.784-10.959-165.07-.26208-249.85 1.106-8.767 9.2989-16.257 18.135-16.257z" fill="url(#radialGradient105-9-3-8-0)" stroke-width="3.2"/><path d="m35.159 72.4c-.27904 0-2.2508 1.7636-2.2625 1.8563-10.518 83.366-9.1363 162.22.28736 246.07.016.13546 1.7165 1.675 1.975 1.675h192c.27904 0 2.2508-1.7636 2.2625-1.8563 10.518-83.366 9.1363-162.22-.28736-246.07-.0152-.13545-1.7165-1.675-1.975-1.675z" stroke-width="3.2"/><path d="m35.159 56c-8.8365 0-17.029 7.4908-18.135 16.258-10.697 84.786-9.2674 165.07.2618 249.85.9869 8.7812 9.0365 15.889 17.873 15.889h192c8.8366 0 17.029-7.0885 18.135-15.855 10.697-84.786 9.2674-165.07-.2618-249.85-.9869-8.7812-9.0365-16.291-17.873-16.291zm0 2.9375h192c7.1718 0 14.148 6.4791 14.957 13.682 9.5099 84.612 10.926 164.63.2618 249.16-.905 7.1732-7.9545 13.287-15.219 13.287h-192c-7.2605 0-14.147-6.0885-14.955-13.281-9.5098-84.612-10.928-164.63-.2637-249.16.9064-7.1842 8.0432-13.688 15.219-13.688z" fill="url(#linearGradient291)"/><path d="m35.159 62c-5.4467 0-11.489 5.4691-12.188 11.006-10.63 84.253-9.2144 164 .27539 248.44.62259 5.5395 6.2922 10.557 11.912 10.557h192c5.6278 0 11.492-5.0912 12.188-10.605 10.63-84.253 9.2144-164-.27539-248.44-.62483-5.5594-6.473-10.957-11.912-10.957zm0 3h192c3.7402 0 8.488 4.3466 8.9315 8.295 9.4701 84.256 10.872 163.74.27539 247.72-.49049 3.8877-5.184 7.9805-9.207 7.9805h-192c-4.0115 0-8.4912-3.9744-8.9315-7.8925-9.4701-84.256-10.87-163.74-.27344-247.73.49475-3.9216 5.4534-8.3808 9.2051-8.3808z" fill="url(#linearGradient303)" opacity=".5" stroke-width="3.2"/><path d="m57.759 12v26h13v18h44v-18h29v18h45v-18h13v-26h-36v12h-22v-12h-29v12h-22v-12z" fill="#959ca0"/><path d="m61.759 3v17h136v-17z" fill="#959ca0"/><path d="m92.759 0v12h-35v20h13v18h44v-18h29v18h45v-18h13v-20h-36v-12h-22v12h-29v-12z" fill="url(#linearGradient316)"/><rect x="92.759" y="14" width="22" height="10" fill="#959ca0"/><rect x="143.76" y="14" width="22" height="10" fill="#959ca0"/><rect transform="scale(1,-1)" x="61.759" y="-392" width="136" height="1" fill="#d0d4d5"/><path d="m57.759 382v-26h13v-18h44v18h29v-18h45v18h13v26h-36v-12h-22v12h-29v-12h-22v12z" fill="#959ca0"/><path d="m61.759 391v-17h136v17z" fill="#959ca0"/><path d="m92.759 394v-12h-35v-20h13v-18h44v18h29v-18h45v18h13v20h-36v12h-22v-12h-29v12z" fill="url(#linearGradient321)"/><rect transform="scale(1,-1)" x="92.759" y="-380" width="22" height="10" fill="#959ca0"/><rect transform="scale(1,-1)" x="143.76" y="-380" width="22" height="10" fill="#959ca0"/><path d="m92.759 394v-14h22v14zm51 0v-14h22v14z" fill="url(#linearGradient322)"/><path d="m70.759 38v18h10zm44 0-10 18h10zm29 0v18h10zm45 0-10 18h10zm-118 300v18l10-18zm34 0 10 18v-18zm39 0v18l10-18zm35 0 10 18v-18z" opacity=".2"/></svg>
